<svg id="Layer_1" xmlns="http://www.w3.org/2000/svg" viewBox="0 0 792 612">
  <style>
    .st0{fill:#010101;} .st1{fill:none;}
  </style>
  <path d="M75.3 453.1v24.7c3.3-5.9 9-8.1 14.8-8.2 11.4 0 17.2 7.4 17.2 18.1v23.5h-4v-23.5c0-8.5-4-14.2-13.2-14.2-8.6 0-14.6 6.6-14.6 15.2v22.5h-4.1v-58.1h3.9zm49 37.6c0-13 9.3-21.3 20.8-21.3s20.8 8.3 20.8 21.3-9.3 21-20.8 21-20.8-7.9-20.8-21zm37.6 0c0-10.6-7.6-17.5-16.8-17.5s-16.8 6.9-16.8 17.5 7.5 17 16.8 17 16.8-6.3 16.8-17zm82.4 20.4v-24.6c0-7.9-5.3-13.4-13.1-13.4s-13.2 5.8-13.2 13.7v24.3h-4.1v-24.3c0-7.9-5.4-13.6-13.2-13.6-7.8 0-13.1 5.7-13.1 13.6v24.3h-4.1v-41h3.8l.1 6.8c2.8-5.4 8-7.6 13.4-7.6 6.2 0 12.8 2.8 15.2 10.1 2.5-6.7 8.9-10.1 15.2-10.1 10 0 17.2 7.1 17.2 17.3v24.6h-4.1zm21.5-20.4c0-12.3 9.3-21.2 20.8-21.2s21.8 7.1 20.2 23.1h-36.9c.8 9.6 8.2 15.2 16.7 15.2 5.4 0 11.7-2.2 14.8-6.2l2.9 2.3c-4 5.2-11.1 7.9-17.7 7.9-11.5-.1-20.8-8.1-20.8-21.1zm37.4-1.7c-.1-10.1-6.7-15.8-16.6-15.8-8.5 0-15.8 5.7-16.7 15.8h33.3zm81.7-11.4c-4.1-3.7-8.2-4.3-12.8-4.3-6.4-.1-12.5 2.3-12.4 7.5.2 5.5 7.3 6.6 12.4 7.5 7.3 1.2 17.3 2.5 16.9 12-.2 9-9.6 11.5-16.8 11.5-7.2 0-14.4-2.7-17.9-8.2l3-2.7c3.4 4.9 9.5 7 15 7 5 0 12.5-1.3 12.8-7.8.2-5.9-6.6-7.1-13.4-8.1-8-1.3-15.8-2.8-15.9-11-.1-8 8-11.5 16.3-11.4 6 0 11.2 1.7 15.3 5.5l-2.5 2.5zm19.3 13.1c0-12.3 9.3-21.2 20.8-21.2s21.8 7.1 20.2 23.1h-36.9c.8 9.6 8.2 15.2 16.7 15.2 5.4 0 11.7-2.2 14.8-6.2l2.9 2.3c-4 5.2-11.1 7.9-17.7 7.9-11.5-.1-20.8-8.1-20.8-21.1zm37.4-1.7c-.1-10.1-6.7-15.8-16.6-15.8-8.5 0-15.8 5.7-16.7 15.8h33.3zm26.3-18.8l.2 7.3c2.6-5.6 8.4-7.7 13.6-7.7 3.1-.1 6.1.7 8.8 2.4l-1.8 3.3c-2.2-1.3-4.6-1.9-7-1.9-7.6.1-13.5 6.2-13.5 13.7v23.9h-4.1v-41h3.8zm35.7 0h4.5l14.9 36.3 14.9-36.3h4.5l-17.2 41h-4.5l-17.1-41zm59.2-13.4c0 4.3-6.6 4.3-6.6 0s6.6-4.3 6.6 0zm-5.4 13.2v41.2h4.1V470h-4.1zm57.6 35.4c-4.1 4.2-9.5 6.1-14.9 6.1-11.5 0-21.1-8-21.1-20.9 0-12.9 9.2-20.9 21.1-20.9 5.4 0 10.8 2.1 14.9 6.1l-2.7 2.6c-3.3-3.3-7.9-4.9-12.3-4.9-9.3 0-17.1 6.1-17.1 17.1 0 11 7.8 17.1 17.1 17.1 4.4 0 8.9-1.7 12.2-5.1l2.8 2.8zm15.9-14.7c0-12.3 9.3-21.2 20.8-21.2s21.8 7.1 20.2 23.1H635c.8 9.6 8.2 15.2 16.7 15.2 5.4 0 11.7-2.2 14.8-6.2l2.9 2.3c-4 5.2-11.1 7.9-17.7 7.9-11.5-.1-20.8-8.1-20.8-21.1zm37.4-1.7c-.1-10.1-6.7-15.8-16.6-15.8-8.5 0-15.8 5.7-16.7 15.8h33.3zm50.6-11.4c-4.1-3.7-8.2-4.3-12.8-4.3-6.4-.1-12.5 2.3-12.4 7.5.2 5.5 7.3 6.6 12.4 7.5 7.3 1.2 17.3 2.5 16.9 12-.2 9-9.6 11.5-16.8 11.5s-14.4-2.7-17.9-8.2l3-2.7c3.4 4.9 9.5 7 15 7 5 0 12.5-1.3 12.8-7.8.2-5.9-6.6-7.1-13.4-8.1-8-1.3-15.8-2.8-15.9-11-.1-8 8-11.5 16.3-11.4 6 0 11.2 1.7 15.3 5.5l-2.5 2.5zm-622-154l2.1 13.1c8.7-14 20.4-16.1 31.9-16.1 11.7 0 22.9 4.6 29.1 10.8l-12.6 24.3c-5.7-4.8-11-7.3-20.2-7.3-14.7 0-28.2 7.8-28.2 28.7v59.6H71V323.6h25.9zm91.7 66.5c1.8 14 14 24.1 33.7 24.1 10.3 0 23.8-3.9 30.3-10.6l17.9 17.7c-11.9 12.4-31.4 18.3-48.6 18.3-39 0-62.1-24.1-62.1-60.3 0-34.4 23.4-59.2 60.1-59.2 37.8 0 61.5 23.4 57.1 69.9h-88.4zm61.5-23.2c-1.8-14.7-13.3-22-29.4-22-15.1 0-27.5 7.3-31.6 22h61zm70.4-90.6v160.3h-27.7V276.3h27.7zm49.3 15.4c0 21.8-33 21.8-33 0s33-21.8 33 0zm-30.5 31.4v113.5h28V323.1h-28zm137.1.5h26.8v113.1h-26.4l-1.4-16.5c-6.4 13.3-24.1 19.7-36.7 20-33.5.2-58.2-20.4-58.2-60.1 0-39 25.9-59.4 58.9-59.2 15.1 0 29.6 7.1 36 18.3l1-15.6zM408.5 380c0 21.6 14.9 34.4 33.5 34.4 44 0 44-68.6 0-68.6-18.6 0-33.5 12.6-33.5 34.2zm195.9 56.6v-59.2c0-17.2-9.4-30.3-27.3-30.3-17.2 0-28.9 14.4-28.9 31.6v57.8h-27.7V323.4h25l1.8 15.4c11.5-11.2 22.9-17 37.1-17 26.6 0 47.9 20 47.9 55.5v59.4h-27.9zm84.9-144.9v32.1h31.2v24.1h-31.4v48.8c0 10.8 6 16.1 14.7 16.1 4.4 0 9.4-1.4 13.5-3.4l7.8 23.8c-8 3.2-14.7 4.6-23.2 4.8-24.5.9-40.6-13.1-40.6-41.3v-48.8h-22.1v-24.1h22.1v-29.1l28-3z"/>
  <path class="st0" d="M473 279.6c-1.5 0-2.9-.5-4.1-1.6L336.8 151.6 204.7 278c-2.4 2.3-6.1 2.2-8.4-.2-2.3-2.4-2.2-6.1.2-8.4l140.3-134.2 140.3 134.2c2.4 2.3 2.4 6 .2 8.4-1.2 1.2-2.7 1.8-4.3 1.8z"/>
  <path d="M240.2 305.5c-3 0-5.4-2.4-5.4-5.4v-20.4c0-3 2.4-5.4 5.4-5.4s5.4 2.4 5.4 5.4v20.4c0 3-2.4 5.4-5.4 5.4zm194.8 0c-3 0-5.4-2.4-5.4-5.4v-20.4c0-3 2.4-5.4 5.4-5.4s5.4 2.4 5.4 5.4v20.4c.1 3-2.4 5.4-5.4 5.4z"/>
  <path class="st1" d="M421 207.4h39.1"/>
  <path d="M424.5 205.5c-2.7 0-4.9-2.4-4.9-5.4v-24.7h-25c-2.7 0-4.9-2.4-4.9-5.4s2.2-5.4 4.9-5.4h34.7v35.5c.1 3-2.1 5.4-4.8 5.4z"/>
</svg>